<?xml version="1.0" encoding="UTF-8" standalone="no"?>
<!DOCTYPE svg PUBLIC "-//W3C//DTD SVG 1.1//EN"
 "http://www.w3.org/Graphics/SVG/1.1/DTD/svg11.dtd">
<!-- Generated by graphviz version 2.38.0 (20140413.2041)
 -->
<!-- Title: g Pages: 1 -->
<svg width="1794pt" height="856pt"
 viewBox="0.00 0.00 1794.00 856.00" xmlns="http://www.w3.org/2000/svg" xmlns:xlink="http://www.w3.org/1999/xlink">
<g id="graph0" class="graph" transform="scale(1 1) rotate(0) translate(4 852)">
<title>g</title>
<polygon fill="white" stroke="none" points="-4,4 -4,-852 1790,-852 1790,4 -4,4"/>
<!-- node91486448 -->
<g id="node1" class="node"><title>node91486448</title>
<polygon fill="none" stroke="black" points="0,-538.5 0,-594.5 122,-594.5 122,-538.5 0,-538.5"/>
<text text-anchor="middle" x="61" y="-576.1" font-family="Times New Roman,serif" font-size="18.00">Program</text>
<polyline fill="none" stroke="black" points="0,-566.5 122,-566.5 "/>
<text text-anchor="middle" x="61" y="-548.1" font-family="Times New Roman,serif" font-size="18.00">(line: 1, col: 1)</text>
</g>
<!-- node91486736 -->
<g id="node2" class="node"><title>node91486736</title>
<polygon fill="none" stroke="black" points="159,-571.5 159,-655.5 281,-655.5 281,-571.5 159,-571.5"/>
<text text-anchor="middle" x="220" y="-637.1" font-family="Times New Roman,serif" font-size="18.00">Main Class</text>
<polyline fill="none" stroke="black" points="159,-627.5 281,-627.5 "/>
<text text-anchor="middle" x="220" y="-609.1" font-family="Times New Roman,serif" font-size="18.00">Factorial</text>
<polyline fill="none" stroke="black" points="159,-599.5 281,-599.5 "/>
<text text-anchor="middle" x="220" y="-581.1" font-family="Times New Roman,serif" font-size="18.00">(line: 1, col: 1)</text>
</g>
<!-- node91486448&#45;&gt;node91486736 -->
<g id="edge8" class="edge"><title>node91486448&#45;&gt;node91486736</title>
<path fill="none" stroke="black" d="M122.251,-584.537C131.078,-587.18 140.231,-589.92 149.23,-592.613"/>
<polygon fill="black" stroke="black" points="148.326,-595.996 158.91,-595.511 150.334,-589.29 148.326,-595.996"/>
</g>
<!-- node92663728 -->
<g id="node10" class="node"><title>node92663728</title>
<polygon fill="none" stroke="black" points="159,-457.5 159,-541.5 281,-541.5 281,-457.5 159,-457.5"/>
<text text-anchor="middle" x="220" y="-523.1" font-family="Times New Roman,serif" font-size="18.00">Class</text>
<polyline fill="none" stroke="black" points="159,-513.5 281,-513.5 "/>
<text text-anchor="middle" x="220" y="-495.1" font-family="Times New Roman,serif" font-size="18.00">Fac</text>
<polyline fill="none" stroke="black" points="159,-485.5 281,-485.5 "/>
<text text-anchor="middle" x="220" y="-467.1" font-family="Times New Roman,serif" font-size="18.00">(line: 7, col: 1)</text>
</g>
<!-- node91486448&#45;&gt;node92663728 -->
<g id="edge33" class="edge"><title>node91486448&#45;&gt;node92663728</title>
<path fill="none" stroke="black" d="M122.251,-540.788C131.172,-536.981 140.426,-533.031 149.517,-529.152"/>
<polygon fill="black" stroke="black" points="151.086,-532.288 158.91,-525.144 148.339,-525.85 151.086,-532.288"/>
</g>
<!-- node92663536 -->
<g id="node3" class="node"><title>node92663536</title>
<polygon fill="none" stroke="black" points="353.5,-660.5 353.5,-744.5 475.5,-744.5 475.5,-660.5 353.5,-660.5"/>
<text text-anchor="middle" x="414.5" y="-726.1" font-family="Times New Roman,serif" font-size="18.00">Id</text>
<polyline fill="none" stroke="black" points="353.5,-716.5 475.5,-716.5 "/>
<text text-anchor="middle" x="414.5" y="-698.1" font-family="Times New Roman,serif" font-size="18.00">Factorial</text>
<polyline fill="none" stroke="black" points="353.5,-688.5 475.5,-688.5 "/>
<text text-anchor="middle" x="414.5" y="-670.1" font-family="Times New Roman,serif" font-size="18.00">(line: 1, col: 6)</text>
</g>
<!-- node91486736&#45;&gt;node92663536 -->
<g id="edge1" class="edge"><title>node91486736&#45;&gt;node92663536</title>
<path fill="none" stroke="black" d="M281.116,-641.294C301.015,-650.494 323.323,-660.808 343.874,-670.309"/>
<polygon fill="black" stroke="black" points="342.632,-673.591 353.178,-674.611 345.57,-667.237 342.632,-673.591"/>
</g>
<!-- node91486256 -->
<g id="node4" class="node"><title>node91486256</title>
<polygon fill="none" stroke="black" points="353.5,-585.5 353.5,-641.5 475.5,-641.5 475.5,-585.5 353.5,-585.5"/>
<text text-anchor="middle" x="414.5" y="-623.1" font-family="Times New Roman,serif" font-size="18.00">Println</text>
<polyline fill="none" stroke="black" points="353.5,-613.5 475.5,-613.5 "/>
<text text-anchor="middle" x="414.5" y="-595.1" font-family="Times New Roman,serif" font-size="18.00">(line: 3, col: 2)</text>
</g>
<!-- node91486736&#45;&gt;node91486256 -->
<g id="edge7" class="edge"><title>node91486736&#45;&gt;node91486256</title>
<path fill="none" stroke="black" d="M281.116,-613.5C300.746,-613.5 322.721,-613.5 343.04,-613.5"/>
<polygon fill="black" stroke="black" points="343.178,-617 353.178,-613.5 343.178,-610 343.178,-617"/>
</g>
<!-- node91486640 -->
<g id="node5" class="node"><title>node91486640</title>
<polygon fill="none" stroke="black" points="599,-618.5 599,-674.5 730,-674.5 730,-618.5 599,-618.5"/>
<text text-anchor="middle" x="664.5" y="-656.1" font-family="Times New Roman,serif" font-size="18.00">.ComputeFac()</text>
<polyline fill="none" stroke="black" points="599,-646.5 730,-646.5 "/>
<text text-anchor="middle" x="664.5" y="-628.1" font-family="Times New Roman,serif" font-size="18.00">(line: 3, col: 21)</text>
</g>
<!-- node91486256&#45;&gt;node91486640 -->
<g id="edge6" class="edge"><title>node91486256&#45;&gt;node91486640</title>
<path fill="none" stroke="black" d="M475.534,-621.488C509.602,-626.022 552.542,-631.735 588.777,-636.557"/>
<polygon fill="black" stroke="black" points="588.432,-640.042 598.806,-637.892 589.355,-633.103 588.432,-640.042"/>
</g>
<!-- node91485264 -->
<g id="node6" class="node"><title>node91485264</title>
<polygon fill="none" stroke="black" points="821,-763.5 821,-847.5 952,-847.5 952,-763.5 821,-763.5"/>
<text text-anchor="middle" x="886.5" y="-829.1" font-family="Times New Roman,serif" font-size="18.00">Id</text>
<polyline fill="none" stroke="black" points="821,-819.5 952,-819.5 "/>
<text text-anchor="middle" x="886.5" y="-801.1" font-family="Times New Roman,serif" font-size="18.00">ComputeFac</text>
<polyline fill="none" stroke="black" points="821,-791.5 952,-791.5 "/>
<text text-anchor="middle" x="886.5" y="-773.1" font-family="Times New Roman,serif" font-size="18.00">(line: 3, col: 31)</text>
</g>
<!-- node91486640&#45;&gt;node91485264 -->
<g id="edge2" class="edge"><title>node91486640&#45;&gt;node91485264</title>
<path fill="none" stroke="black" d="M704.325,-674.56C735.977,-697.436 781.408,-730.27 818.857,-757.335"/>
<polygon fill="black" stroke="black" points="817.052,-760.349 827.207,-763.37 821.153,-754.676 817.052,-760.349"/>
</g>
<!-- node91485232 -->
<g id="node7" class="node"><title>node91485232</title>
<polygon fill="none" stroke="black" points="821,-688.5 821,-744.5 952,-744.5 952,-688.5 821,-688.5"/>
<text text-anchor="middle" x="886.5" y="-726.1" font-family="Times New Roman,serif" font-size="18.00">new</text>
<polyline fill="none" stroke="black" points="821,-716.5 952,-716.5 "/>
<text text-anchor="middle" x="886.5" y="-698.1" font-family="Times New Roman,serif" font-size="18.00">(line: 3, col: 21)</text>
</g>
<!-- node91486640&#45;&gt;node91485232 -->
<g id="edge4" class="edge"><title>node91486640&#45;&gt;node91485232</title>
<path fill="none" stroke="black" d="M730.021,-667.029C755.541,-675.149 785.025,-684.531 811.412,-692.927"/>
<polygon fill="black" stroke="black" points="810.39,-696.274 820.98,-695.971 812.512,-689.604 810.39,-696.274"/>
</g>
<!-- node91486384 -->
<g id="node9" class="node"><title>node91486384</title>
<polygon fill="none" stroke="black" points="821,-557.5 821,-669.5 952,-669.5 952,-557.5 821,-557.5"/>
<text text-anchor="middle" x="886.5" y="-651.1" font-family="Times New Roman,serif" font-size="18.00">Value</text>
<polyline fill="none" stroke="black" points="821,-641.5 952,-641.5 "/>
<text text-anchor="middle" x="886.5" y="-623.1" font-family="Times New Roman,serif" font-size="18.00">integer</text>
<polyline fill="none" stroke="black" points="821,-613.5 952,-613.5 "/>
<text text-anchor="middle" x="886.5" y="-595.1" font-family="Times New Roman,serif" font-size="18.00">10</text>
<polyline fill="none" stroke="black" points="821,-585.5 952,-585.5 "/>
<text text-anchor="middle" x="886.5" y="-567.1" font-family="Times New Roman,serif" font-size="18.00">(line: 3, col: 42)</text>
</g>
<!-- node91486640&#45;&gt;node91486384 -->
<g id="edge5" class="edge"><title>node91486640&#45;&gt;node91486384</title>
<path fill="none" stroke="black" d="M730.021,-636.822C755.429,-633.011 784.766,-628.61 811.065,-624.665"/>
<polygon fill="black" stroke="black" points="811.61,-628.123 820.98,-623.178 810.572,-621.2 811.61,-628.123"/>
<text text-anchor="middle" x="775.5" y="-637.3" font-family="Times New Roman,serif" font-size="14.00">parameter</text>
</g>
<!-- node91486192 -->
<g id="node8" class="node"><title>node91486192</title>
<polygon fill="none" stroke="black" points="1017.5,-674.5 1017.5,-758.5 1148.5,-758.5 1148.5,-674.5 1017.5,-674.5"/>
<text text-anchor="middle" x="1083" y="-740.1" font-family="Times New Roman,serif" font-size="18.00">Id</text>
<polyline fill="none" stroke="black" points="1017.5,-730.5 1148.5,-730.5 "/>
<text text-anchor="middle" x="1083" y="-712.1" font-family="Times New Roman,serif" font-size="18.00">Fac</text>
<polyline fill="none" stroke="black" points="1017.5,-702.5 1148.5,-702.5 "/>
<text text-anchor="middle" x="1083" y="-684.1" font-family="Times New Roman,serif" font-size="18.00">(line: 3, col: 25)</text>
</g>
<!-- node91485232&#45;&gt;node91486192 -->
<g id="edge3" class="edge"><title>node91485232&#45;&gt;node91486192</title>
<path fill="none" stroke="black" d="M952.266,-716.5C969.807,-716.5 988.941,-716.5 1006.99,-716.5"/>
<polygon fill="black" stroke="black" points="1007.19,-720 1017.19,-716.5 1007.19,-713 1007.19,-720"/>
</g>
<!-- node92662736 -->
<g id="node11" class="node"><title>node92662736</title>
<polygon fill="none" stroke="black" points="353.5,-457.5 353.5,-541.5 475.5,-541.5 475.5,-457.5 353.5,-457.5"/>
<text text-anchor="middle" x="414.5" y="-523.1" font-family="Times New Roman,serif" font-size="18.00">Id</text>
<polyline fill="none" stroke="black" points="353.5,-513.5 475.5,-513.5 "/>
<text text-anchor="middle" x="414.5" y="-495.1" font-family="Times New Roman,serif" font-size="18.00">Fac</text>
<polyline fill="none" stroke="black" points="353.5,-485.5 475.5,-485.5 "/>
<text text-anchor="middle" x="414.5" y="-467.1" font-family="Times New Roman,serif" font-size="18.00">(line: 7, col: 7)</text>
</g>
<!-- node92663728&#45;&gt;node92662736 -->
<g id="edge9" class="edge"><title>node92663728&#45;&gt;node92662736</title>
<path fill="none" stroke="black" d="M281.116,-499.5C300.746,-499.5 322.721,-499.5 343.04,-499.5"/>
<polygon fill="black" stroke="black" points="343.178,-503 353.178,-499.5 343.178,-496 343.178,-503"/>
</g>
<!-- node91488144 -->
<g id="node12" class="node"><title>node91488144</title>
<polygon fill="none" stroke="black" points="318,-333.5 318,-417.5 511,-417.5 511,-333.5 318,-333.5"/>
<text text-anchor="middle" x="414.5" y="-399.1" font-family="Times New Roman,serif" font-size="18.00">Method</text>
<polyline fill="none" stroke="black" points="318,-389.5 511,-389.5 "/>
<text text-anchor="middle" x="414.5" y="-371.1" font-family="Times New Roman,serif" font-size="18.00">public int ComputeFac()</text>
<polyline fill="none" stroke="black" points="318,-361.5 511,-361.5 "/>
<text text-anchor="middle" x="414.5" y="-343.1" font-family="Times New Roman,serif" font-size="18.00">(line: 9, col: 16)</text>
</g>
<!-- node92663728&#45;&gt;node91488144 -->
<g id="edge32" class="edge"><title>node92663728&#45;&gt;node91488144</title>
<path fill="none" stroke="black" d="M281.116,-460.776C299.663,-448.829 320.303,-435.533 339.663,-423.063"/>
<polygon fill="black" stroke="black" points="341.651,-425.946 348.162,-417.588 337.86,-420.061 341.651,-425.946"/>
</g>
<!-- node92663280 -->
<g id="node13" class="node"><title>node92663280</title>
<polygon fill="none" stroke="black" points="599,-492.5 599,-576.5 730,-576.5 730,-492.5 599,-492.5"/>
<text text-anchor="middle" x="664.5" y="-558.1" font-family="Times New Roman,serif" font-size="18.00">Id</text>
<polyline fill="none" stroke="black" points="599,-548.5 730,-548.5 "/>
<text text-anchor="middle" x="664.5" y="-530.1" font-family="Times New Roman,serif" font-size="18.00">ComputeFac</text>
<polyline fill="none" stroke="black" points="599,-520.5 730,-520.5 "/>
<text text-anchor="middle" x="664.5" y="-502.1" font-family="Times New Roman,serif" font-size="18.00">(line: 9, col: 16)</text>
</g>
<!-- node91488144&#45;&gt;node92663280 -->
<g id="edge10" class="edge"><title>node91488144&#45;&gt;node92663280</title>
<path fill="none" stroke="black" d="M481.308,-417.692C514.777,-439.149 555.561,-465.297 590.049,-487.409"/>
<polygon fill="black" stroke="black" points="588.366,-490.487 598.674,-492.938 592.144,-484.594 588.366,-490.487"/>
</g>
<!-- node91487312 -->
<g id="node14" class="node"><title>node91487312</title>
<polygon fill="none" stroke="black" points="599,-389.5 599,-473.5 730,-473.5 730,-389.5 599,-389.5"/>
<text text-anchor="middle" x="664.5" y="-455.1" font-family="Times New Roman,serif" font-size="18.00">Var</text>
<polyline fill="none" stroke="black" points="599,-445.5 730,-445.5 "/>
<text text-anchor="middle" x="664.5" y="-427.1" font-family="Times New Roman,serif" font-size="18.00">int num_aux</text>
<polyline fill="none" stroke="black" points="599,-417.5 730,-417.5 "/>
<text text-anchor="middle" x="664.5" y="-399.1" font-family="Times New Roman,serif" font-size="18.00">(line: 10, col: 6)</text>
</g>
<!-- node91488144&#45;&gt;node91487312 -->
<g id="edge11" class="edge"><title>node91488144&#45;&gt;node91487312</title>
<path fill="none" stroke="black" d="M511.029,-397.071C536.813,-402.893 564.333,-409.108 588.796,-414.631"/>
<polygon fill="black" stroke="black" points="588.196,-418.084 598.721,-416.873 589.738,-411.256 588.196,-418.084"/>
<text text-anchor="middle" x="555" y="-415.3" font-family="Times New Roman,serif" font-size="14.00">local var</text>
</g>
<!-- node91485392 -->
<g id="node15" class="node"><title>node91485392</title>
<polygon fill="none" stroke="black" points="599,-314.5 599,-370.5 730,-370.5 730,-314.5 599,-314.5"/>
<text text-anchor="middle" x="664.5" y="-352.1" font-family="Times New Roman,serif" font-size="18.00">If Else</text>
<polyline fill="none" stroke="black" points="599,-342.5 730,-342.5 "/>
<text text-anchor="middle" x="664.5" y="-324.1" font-family="Times New Roman,serif" font-size="18.00">(line: 11, col: 2)</text>
</g>
<!-- node91488144&#45;&gt;node91485392 -->
<g id="edge28" class="edge"><title>node91488144&#45;&gt;node91485392</title>
<path fill="none" stroke="black" d="M511.029,-362.789C536.813,-359.358 564.333,-355.696 588.796,-352.44"/>
<polygon fill="black" stroke="black" points="589.27,-355.908 598.721,-351.12 588.347,-348.969 589.27,-355.908"/>
</g>
<!-- node91486544 -->
<g id="node32" class="node"><title>node91486544</title>
<polygon fill="none" stroke="black" points="599,-211.5 599,-295.5 730,-295.5 730,-211.5 599,-211.5"/>
<text text-anchor="middle" x="664.5" y="-277.1" font-family="Times New Roman,serif" font-size="18.00">Arg</text>
<polyline fill="none" stroke="black" points="599,-267.5 730,-267.5 "/>
<text text-anchor="middle" x="664.5" y="-249.1" font-family="Times New Roman,serif" font-size="18.00">int num</text>
<polyline fill="none" stroke="black" points="599,-239.5 730,-239.5 "/>
<text text-anchor="middle" x="664.5" y="-221.1" font-family="Times New Roman,serif" font-size="18.00">(line: 9, col: 31)</text>
</g>
<!-- node91488144&#45;&gt;node91486544 -->
<g id="edge29" class="edge"><title>node91488144&#45;&gt;node91486544</title>
<path fill="none" stroke="black" d="M501.195,-333.344C530,-319.173 561.863,-303.499 589.676,-289.817"/>
<polygon fill="black" stroke="black" points="591.514,-292.813 598.942,-285.258 588.424,-286.532 591.514,-292.813"/>
<text text-anchor="middle" x="555" y="-322.3" font-family="Times New Roman,serif" font-size="14.00">argument</text>
</g>
<!-- node91485808 -->
<g id="node33" class="node"><title>node91485808</title>
<polygon fill="none" stroke="black" points="599,-122.5 599,-178.5 730,-178.5 730,-122.5 599,-122.5"/>
<text text-anchor="middle" x="664.5" y="-160.1" font-family="Times New Roman,serif" font-size="18.00">Return</text>
<polyline fill="none" stroke="black" points="599,-150.5 730,-150.5 "/>
<text text-anchor="middle" x="664.5" y="-132.1" font-family="Times New Roman,serif" font-size="18.00">(line: 15, col: 2)</text>
</g>
<!-- node91488144&#45;&gt;node91485808 -->
<g id="edge31" class="edge"><title>node91488144&#45;&gt;node91485808</title>
<path fill="none" stroke="black" d="M457.864,-333.247C494.42,-297.298 549.062,-244.766 599,-201.5 605.359,-195.991 612.209,-190.315 618.986,-184.841"/>
<polygon fill="black" stroke="black" points="621.252,-187.511 626.875,-178.531 616.88,-182.044 621.252,-187.511"/>
<text text-anchor="middle" x="555" y="-266.3" font-family="Times New Roman,serif" font-size="14.00">returns</text>
</g>
<!-- node91487952 -->
<g id="node16" class="node"><title>node91487952</title>
<polygon fill="none" stroke="black" points="821,-454.5 821,-538.5 952,-538.5 952,-454.5 821,-454.5"/>
<text text-anchor="middle" x="886.5" y="-520.1" font-family="Times New Roman,serif" font-size="18.00">Binary</text>
<polyline fill="none" stroke="black" points="821,-510.5 952,-510.5 "/>
<text text-anchor="middle" x="886.5" y="-492.1" font-family="Times New Roman,serif" font-size="18.00">&lt;</text>
<polyline fill="none" stroke="black" points="821,-482.5 952,-482.5 "/>
<text text-anchor="middle" x="886.5" y="-464.1" font-family="Times New Roman,serif" font-size="18.00">(line: 11, col: 6)</text>
</g>
<!-- node91485392&#45;&gt;node91487952 -->
<g id="edge14" class="edge"><title>node91485392&#45;&gt;node91487952</title>
<path fill="none" stroke="black" d="M714.45,-370.579C719.749,-373.843 725.021,-377.19 730,-380.5 761.784,-401.628 795.897,-426.779 824.05,-448.252"/>
<polygon fill="black" stroke="black" points="822.137,-451.196 832.204,-454.497 826.393,-445.638 822.137,-451.196"/>
<text text-anchor="middle" x="775.5" y="-433.3" font-family="Times New Roman,serif" font-size="14.00">condition</text>
</g>
<!-- node91485552 -->
<g id="node19" class="node"><title>node91485552</title>
<polygon fill="none" stroke="black" points="821,-300.5 821,-384.5 952,-384.5 952,-300.5 821,-300.5"/>
<text text-anchor="middle" x="886.5" y="-366.1" font-family="Times New Roman,serif" font-size="18.00">Assign</text>
<polyline fill="none" stroke="black" points="821,-356.5 952,-356.5 "/>
<text text-anchor="middle" x="886.5" y="-338.1" font-family="Times New Roman,serif" font-size="18.00">num_aux</text>
<polyline fill="none" stroke="black" points="821,-328.5 952,-328.5 "/>
<text text-anchor="middle" x="886.5" y="-310.1" font-family="Times New Roman,serif" font-size="18.00">(line: 14, col: 6)</text>
</g>
<!-- node91485392&#45;&gt;node91485552 -->
<g id="edge24" class="edge"><title>node91485392&#45;&gt;node91485552</title>
<path fill="none" stroke="black" d="M730.021,-342.5C755.317,-342.5 784.508,-342.5 810.717,-342.5"/>
<polygon fill="black" stroke="black" points="810.98,-346 820.98,-342.5 810.98,-339 810.98,-346"/>
<text text-anchor="middle" x="775.5" y="-346.3" font-family="Times New Roman,serif" font-size="14.00">if False</text>
</g>
<!-- node91488208 -->
<g id="node29" class="node"><title>node91488208</title>
<polygon fill="none" stroke="black" points="821,-131.5 821,-215.5 952,-215.5 952,-131.5 821,-131.5"/>
<text text-anchor="middle" x="886.5" y="-197.1" font-family="Times New Roman,serif" font-size="18.00">Assign</text>
<polyline fill="none" stroke="black" points="821,-187.5 952,-187.5 "/>
<text text-anchor="middle" x="886.5" y="-169.1" font-family="Times New Roman,serif" font-size="18.00">num_aux</text>
<polyline fill="none" stroke="black" points="821,-159.5 952,-159.5 "/>
<text text-anchor="middle" x="886.5" y="-141.1" font-family="Times New Roman,serif" font-size="18.00">(line: 12, col: 6)</text>
</g>
<!-- node91485392&#45;&gt;node91488208 -->
<g id="edge27" class="edge"><title>node91485392&#45;&gt;node91488208</title>
<path fill="none" stroke="black" d="M714.995,-314.499C720.139,-311.246 725.227,-307.88 730,-304.5 765.434,-279.404 802.718,-248.18 831.893,-222.511"/>
<polygon fill="black" stroke="black" points="834.341,-225.018 839.513,-215.771 829.703,-219.775 834.341,-225.018"/>
<text text-anchor="middle" x="775.5" y="-292.3" font-family="Times New Roman,serif" font-size="14.00">if True</text>
</g>
<!-- node91487536 -->
<g id="node17" class="node"><title>node91487536</title>
<polygon fill="none" stroke="black" points="1017.5,-571.5 1017.5,-655.5 1148.5,-655.5 1148.5,-571.5 1017.5,-571.5"/>
<text text-anchor="middle" x="1083" y="-637.1" font-family="Times New Roman,serif" font-size="18.00">Id</text>
<polyline fill="none" stroke="black" points="1017.5,-627.5 1148.5,-627.5 "/>
<text text-anchor="middle" x="1083" y="-609.1" font-family="Times New Roman,serif" font-size="18.00">num</text>
<polyline fill="none" stroke="black" points="1017.5,-599.5 1148.5,-599.5 "/>
<text text-anchor="middle" x="1083" y="-581.1" font-family="Times New Roman,serif" font-size="18.00">(line: 11, col: 6)</text>
</g>
<!-- node91487952&#45;&gt;node91487536 -->
<g id="edge13" class="edge"><title>node91487952&#45;&gt;node91487536</title>
<path fill="none" stroke="black" d="M952.266,-535.459C970.296,-546.305 990.01,-558.164 1008.5,-569.288"/>
<polygon fill="black" stroke="black" points="1006.81,-572.356 1017.19,-574.511 1010.42,-566.358 1006.81,-572.356"/>
<text text-anchor="middle" x="982.5" y="-562.3" font-family="Times New Roman,serif" font-size="14.00">left</text>
</g>
<!-- node91487760 -->
<g id="node18" class="node"><title>node91487760</title>
<polygon fill="none" stroke="black" points="1013,-440.5 1013,-552.5 1153,-552.5 1153,-440.5 1013,-440.5"/>
<text text-anchor="middle" x="1083" y="-534.1" font-family="Times New Roman,serif" font-size="18.00">Value</text>
<polyline fill="none" stroke="black" points="1013,-524.5 1153,-524.5 "/>
<text text-anchor="middle" x="1083" y="-506.1" font-family="Times New Roman,serif" font-size="18.00">integer</text>
<polyline fill="none" stroke="black" points="1013,-496.5 1153,-496.5 "/>
<text text-anchor="middle" x="1083" y="-478.1" font-family="Times New Roman,serif" font-size="18.00">1</text>
<polyline fill="none" stroke="black" points="1013,-468.5 1153,-468.5 "/>
<text text-anchor="middle" x="1083" y="-450.1" font-family="Times New Roman,serif" font-size="18.00">(line: 11, col: 12)</text>
</g>
<!-- node91487952&#45;&gt;node91487760 -->
<g id="edge12" class="edge"><title>node91487952&#45;&gt;node91487760</title>
<path fill="none" stroke="black" d="M952.266,-496.5C968.372,-496.5 985.822,-496.5 1002.54,-496.5"/>
<polygon fill="black" stroke="black" points="1002.84,-500 1012.84,-496.5 1002.84,-493 1002.84,-500"/>
<text text-anchor="middle" x="982.5" y="-500.3" font-family="Times New Roman,serif" font-size="14.00">right</text>
</g>
<!-- node91487792 -->
<g id="node20" class="node"><title>node91487792</title>
<polygon fill="none" stroke="black" points="1017.5,-337.5 1017.5,-421.5 1148.5,-421.5 1148.5,-337.5 1017.5,-337.5"/>
<text text-anchor="middle" x="1083" y="-403.1" font-family="Times New Roman,serif" font-size="18.00">Id</text>
<polyline fill="none" stroke="black" points="1017.5,-393.5 1148.5,-393.5 "/>
<text text-anchor="middle" x="1083" y="-375.1" font-family="Times New Roman,serif" font-size="18.00">num_aux</text>
<polyline fill="none" stroke="black" points="1017.5,-365.5 1148.5,-365.5 "/>
<text text-anchor="middle" x="1083" y="-347.1" font-family="Times New Roman,serif" font-size="18.00">(line: 14, col: 6)</text>
</g>
<!-- node91485552&#45;&gt;node91487792 -->
<g id="edge22" class="edge"><title>node91485552&#45;&gt;node91487792</title>
<path fill="none" stroke="black" d="M952.266,-354.82C969.888,-358.173 989.119,-361.831 1007.25,-365.279"/>
<polygon fill="black" stroke="black" points="1006.71,-368.74 1017.19,-367.17 1008.02,-361.863 1006.71,-368.74"/>
</g>
<!-- node91485744 -->
<g id="node21" class="node"><title>node91485744</title>
<polygon fill="none" stroke="black" points="1013,-234.5 1013,-318.5 1153,-318.5 1153,-234.5 1013,-234.5"/>
<text text-anchor="middle" x="1083" y="-300.1" font-family="Times New Roman,serif" font-size="18.00">Binary</text>
<polyline fill="none" stroke="black" points="1013,-290.5 1153,-290.5 "/>
<text text-anchor="middle" x="1083" y="-272.1" font-family="Times New Roman,serif" font-size="18.00">*</text>
<polyline fill="none" stroke="black" points="1013,-262.5 1153,-262.5 "/>
<text text-anchor="middle" x="1083" y="-244.1" font-family="Times New Roman,serif" font-size="18.00">(line: 14, col: 16)</text>
</g>
<!-- node91485552&#45;&gt;node91485744 -->
<g id="edge23" class="edge"><title>node91485552&#45;&gt;node91485744</title>
<path fill="none" stroke="black" d="M952.266,-320.523C968.524,-315.006 986.151,-309.025 1003.02,-303.301"/>
<polygon fill="black" stroke="black" points="1004.5,-306.494 1012.84,-299.967 1002.25,-299.866 1004.5,-306.494"/>
</g>
<!-- node91485584 -->
<g id="node22" class="node"><title>node91485584</title>
<polygon fill="none" stroke="black" points="1214,-278.5 1214,-362.5 1354,-362.5 1354,-278.5 1214,-278.5"/>
<text text-anchor="middle" x="1284" y="-344.1" font-family="Times New Roman,serif" font-size="18.00">Id</text>
<polyline fill="none" stroke="black" points="1214,-334.5 1354,-334.5 "/>
<text text-anchor="middle" x="1284" y="-316.1" font-family="Times New Roman,serif" font-size="18.00">num</text>
<polyline fill="none" stroke="black" points="1214,-306.5 1354,-306.5 "/>
<text text-anchor="middle" x="1284" y="-288.1" font-family="Times New Roman,serif" font-size="18.00">(line: 14, col: 16)</text>
</g>
<!-- node91485744&#45;&gt;node91485584 -->
<g id="edge21" class="edge"><title>node91485744&#45;&gt;node91485584</title>
<path fill="none" stroke="black" d="M1153.04,-291.766C1169.46,-295.397 1187.11,-299.298 1203.94,-303.02"/>
<polygon fill="black" stroke="black" points="1203.22,-306.445 1213.74,-305.187 1204.73,-299.61 1203.22,-306.445"/>
<text text-anchor="middle" x="1183.5" y="-305.3" font-family="Times New Roman,serif" font-size="14.00">left</text>
</g>
<!-- node92393840 -->
<g id="node23" class="node"><title>node92393840</title>
<polygon fill="none" stroke="black" points="1214,-203.5 1214,-259.5 1354,-259.5 1354,-203.5 1214,-203.5"/>
<text text-anchor="middle" x="1284" y="-241.1" font-family="Times New Roman,serif" font-size="18.00">.ComputeFac()</text>
<polyline fill="none" stroke="black" points="1214,-231.5 1354,-231.5 "/>
<text text-anchor="middle" x="1284" y="-213.1" font-family="Times New Roman,serif" font-size="18.00">(line: 14, col: 23)</text>
</g>
<!-- node91485744&#45;&gt;node92393840 -->
<g id="edge20" class="edge"><title>node91485744&#45;&gt;node92393840</title>
<path fill="none" stroke="black" d="M1153.04,-260.887C1169.46,-257.174 1187.11,-253.183 1203.94,-249.377"/>
<polygon fill="black" stroke="black" points="1204.76,-252.781 1213.74,-247.161 1203.22,-245.953 1204.76,-252.781"/>
<text text-anchor="middle" x="1183.5" y="-261.3" font-family="Times New Roman,serif" font-size="14.00">right</text>
</g>
<!-- node91485712 -->
<g id="node24" class="node"><title>node91485712</title>
<polygon fill="none" stroke="black" points="1445,-278.5 1445,-362.5 1585,-362.5 1585,-278.5 1445,-278.5"/>
<text text-anchor="middle" x="1515" y="-344.1" font-family="Times New Roman,serif" font-size="18.00">Id</text>
<polyline fill="none" stroke="black" points="1445,-334.5 1585,-334.5 "/>
<text text-anchor="middle" x="1515" y="-316.1" font-family="Times New Roman,serif" font-size="18.00">ComputeFac</text>
<polyline fill="none" stroke="black" points="1445,-306.5 1585,-306.5 "/>
<text text-anchor="middle" x="1515" y="-288.1" font-family="Times New Roman,serif" font-size="18.00">(line: 14, col: 28)</text>
</g>
<!-- node92393840&#45;&gt;node91485712 -->
<g id="edge15" class="edge"><title>node92393840&#45;&gt;node91485712</title>
<path fill="none" stroke="black" d="M1354.02,-258.324C1379.59,-268.261 1408.77,-279.603 1435.15,-289.855"/>
<polygon fill="black" stroke="black" points="1434.14,-293.217 1444.73,-293.578 1436.68,-286.693 1434.14,-293.217"/>
</g>
<!-- node91485776 -->
<g id="node25" class="node"><title>node91485776</title>
<polygon fill="none" stroke="black" points="1445,-203.5 1445,-259.5 1585,-259.5 1585,-203.5 1445,-203.5"/>
<text text-anchor="middle" x="1515" y="-241.1" font-family="Times New Roman,serif" font-size="18.00">This</text>
<polyline fill="none" stroke="black" points="1445,-231.5 1585,-231.5 "/>
<text text-anchor="middle" x="1515" y="-213.1" font-family="Times New Roman,serif" font-size="18.00">(line: 14, col: 23)</text>
</g>
<!-- node92393840&#45;&gt;node91485776 -->
<g id="edge16" class="edge"><title>node92393840&#45;&gt;node91485776</title>
<path fill="none" stroke="black" d="M1354.02,-231.5C1379.36,-231.5 1408.26,-231.5 1434.45,-231.5"/>
<polygon fill="black" stroke="black" points="1434.73,-235 1444.73,-231.5 1434.73,-228 1434.73,-235"/>
</g>
<!-- node92393744 -->
<g id="node26" class="node"><title>node92393744</title>
<polygon fill="none" stroke="black" points="1445,-100.5 1445,-184.5 1585,-184.5 1585,-100.5 1445,-100.5"/>
<text text-anchor="middle" x="1515" y="-166.1" font-family="Times New Roman,serif" font-size="18.00">Binary</text>
<polyline fill="none" stroke="black" points="1445,-156.5 1585,-156.5 "/>
<text text-anchor="middle" x="1515" y="-138.1" font-family="Times New Roman,serif" font-size="18.00">&#45;</text>
<polyline fill="none" stroke="black" points="1445,-128.5 1585,-128.5 "/>
<text text-anchor="middle" x="1515" y="-110.1" font-family="Times New Roman,serif" font-size="18.00">(line: 14, col: 39)</text>
</g>
<!-- node92393840&#45;&gt;node92393744 -->
<g id="edge19" class="edge"><title>node92393840&#45;&gt;node92393744</title>
<path fill="none" stroke="black" d="M1354.02,-204.676C1379.59,-194.739 1408.77,-183.397 1435.15,-173.145"/>
<polygon fill="black" stroke="black" points="1436.68,-176.307 1444.73,-169.422 1434.14,-169.783 1436.68,-176.307"/>
<text text-anchor="middle" x="1399.5" y="-202.3" font-family="Times New Roman,serif" font-size="14.00">parameter</text>
</g>
<!-- node92393552 -->
<g id="node27" class="node"><title>node92393552</title>
<polygon fill="none" stroke="black" points="1646,-159.5 1646,-243.5 1786,-243.5 1786,-159.5 1646,-159.5"/>
<text text-anchor="middle" x="1716" y="-225.1" font-family="Times New Roman,serif" font-size="18.00">Id</text>
<polyline fill="none" stroke="black" points="1646,-215.5 1786,-215.5 "/>
<text text-anchor="middle" x="1716" y="-197.1" font-family="Times New Roman,serif" font-size="18.00">num</text>
<polyline fill="none" stroke="black" points="1646,-187.5 1786,-187.5 "/>
<text text-anchor="middle" x="1716" y="-169.1" font-family="Times New Roman,serif" font-size="18.00">(line: 14, col: 39)</text>
</g>
<!-- node92393744&#45;&gt;node92393552 -->
<g id="edge18" class="edge"><title>node92393744&#45;&gt;node92393552</title>
<path fill="none" stroke="black" d="M1585.04,-162.97C1601.46,-167.839 1619.11,-173.071 1635.94,-178.061"/>
<polygon fill="black" stroke="black" points="1635.16,-181.48 1645.74,-180.967 1637.15,-174.768 1635.16,-181.48"/>
<text text-anchor="middle" x="1615.5" y="-180.3" font-family="Times New Roman,serif" font-size="14.00">left</text>
</g>
<!-- node92393680 -->
<g id="node28" class="node"><title>node92393680</title>
<polygon fill="none" stroke="black" points="1646,-28.5 1646,-140.5 1786,-140.5 1786,-28.5 1646,-28.5"/>
<text text-anchor="middle" x="1716" y="-122.1" font-family="Times New Roman,serif" font-size="18.00">Value</text>
<polyline fill="none" stroke="black" points="1646,-112.5 1786,-112.5 "/>
<text text-anchor="middle" x="1716" y="-94.1" font-family="Times New Roman,serif" font-size="18.00">integer</text>
<polyline fill="none" stroke="black" points="1646,-84.5 1786,-84.5 "/>
<text text-anchor="middle" x="1716" y="-66.1" font-family="Times New Roman,serif" font-size="18.00">1</text>
<polyline fill="none" stroke="black" points="1646,-56.5 1786,-56.5 "/>
<text text-anchor="middle" x="1716" y="-38.1" font-family="Times New Roman,serif" font-size="18.00">(line: 14, col: 43)</text>
</g>
<!-- node92393744&#45;&gt;node92393680 -->
<g id="edge17" class="edge"><title>node92393744&#45;&gt;node92393680</title>
<path fill="none" stroke="black" d="M1585.04,-122.377C1601.46,-117.591 1619.11,-112.447 1635.94,-107.542"/>
<polygon fill="black" stroke="black" points="1637.12,-110.844 1645.74,-104.685 1635.16,-104.123 1637.12,-110.844"/>
<text text-anchor="middle" x="1615.5" y="-121.3" font-family="Times New Roman,serif" font-size="14.00">right</text>
</g>
<!-- node91487504 -->
<g id="node30" class="node"><title>node91487504</title>
<polygon fill="none" stroke="black" points="1017.5,-131.5 1017.5,-215.5 1148.5,-215.5 1148.5,-131.5 1017.5,-131.5"/>
<text text-anchor="middle" x="1083" y="-197.1" font-family="Times New Roman,serif" font-size="18.00">Id</text>
<polyline fill="none" stroke="black" points="1017.5,-187.5 1148.5,-187.5 "/>
<text text-anchor="middle" x="1083" y="-169.1" font-family="Times New Roman,serif" font-size="18.00">num_aux</text>
<polyline fill="none" stroke="black" points="1017.5,-159.5 1148.5,-159.5 "/>
<text text-anchor="middle" x="1083" y="-141.1" font-family="Times New Roman,serif" font-size="18.00">(line: 12, col: 6)</text>
</g>
<!-- node91488208&#45;&gt;node91487504 -->
<g id="edge25" class="edge"><title>node91488208&#45;&gt;node91487504</title>
<path fill="none" stroke="black" d="M952.266,-173.5C969.807,-173.5 988.941,-173.5 1006.99,-173.5"/>
<polygon fill="black" stroke="black" points="1007.19,-177 1017.19,-173.5 1007.19,-170 1007.19,-177"/>
</g>
<!-- node91488080 -->
<g id="node31" class="node"><title>node91488080</title>
<polygon fill="none" stroke="black" points="1013,-0.5 1013,-112.5 1153,-112.5 1153,-0.5 1013,-0.5"/>
<text text-anchor="middle" x="1083" y="-94.1" font-family="Times New Roman,serif" font-size="18.00">Value</text>
<polyline fill="none" stroke="black" points="1013,-84.5 1153,-84.5 "/>
<text text-anchor="middle" x="1083" y="-66.1" font-family="Times New Roman,serif" font-size="18.00">integer</text>
<polyline fill="none" stroke="black" points="1013,-56.5 1153,-56.5 "/>
<text text-anchor="middle" x="1083" y="-38.1" font-family="Times New Roman,serif" font-size="18.00">1</text>
<polyline fill="none" stroke="black" points="1013,-28.5 1153,-28.5 "/>
<text text-anchor="middle" x="1083" y="-10.1" font-family="Times New Roman,serif" font-size="18.00">(line: 12, col: 16)</text>
</g>
<!-- node91488208&#45;&gt;node91488080 -->
<g id="edge26" class="edge"><title>node91488208&#45;&gt;node91488080</title>
<path fill="none" stroke="black" d="M952.266,-134.541C968.828,-124.578 986.811,-113.76 1003.96,-103.443"/>
<polygon fill="black" stroke="black" points="1006.08,-106.254 1012.84,-98.0999 1002.47,-100.255 1006.08,-106.254"/>
</g>
<!-- node91488176 -->
<g id="node34" class="node"><title>node91488176</title>
<polygon fill="none" stroke="black" points="821,-28.5 821,-112.5 952,-112.5 952,-28.5 821,-28.5"/>
<text text-anchor="middle" x="886.5" y="-94.1" font-family="Times New Roman,serif" font-size="18.00">Id</text>
<polyline fill="none" stroke="black" points="821,-84.5 952,-84.5 "/>
<text text-anchor="middle" x="886.5" y="-66.1" font-family="Times New Roman,serif" font-size="18.00">num_aux</text>
<polyline fill="none" stroke="black" points="821,-56.5 952,-56.5 "/>
<text text-anchor="middle" x="886.5" y="-38.1" font-family="Times New Roman,serif" font-size="18.00">(line: 15, col: 9)</text>
</g>
<!-- node91485808&#45;&gt;node91488176 -->
<g id="edge30" class="edge"><title>node91485808&#45;&gt;node91488176</title>
<path fill="none" stroke="black" d="M730.021,-127.038C755.541,-117.758 785.025,-107.036 811.412,-97.4411"/>
<polygon fill="black" stroke="black" points="812.779,-100.668 820.98,-93.9617 810.386,-94.0899 812.779,-100.668"/>
</g>
</g>
</svg>
